<svg width="468" height="141" viewBox="0 0 468 141" fill="none" xmlns="http://www.w3.org/2000/svg">
<path d="M170.472 90.602H198.008V97H161.725V91.1689L189.099 46.9499H162.049V40.552H197.846V46.383L170.472 90.602ZM227.407 97.7289C223.25 97.7289 219.471 96.784 216.069 94.8943C212.722 93.0046 210.076 90.3321 208.132 86.8766C206.243 83.3672 205.298 79.3178 205.298 74.7285C205.298 70.1933 206.27 66.1979 208.213 62.7424C210.211 59.233 212.911 56.5604 216.312 54.7247C219.713 52.835 223.52 51.8902 227.731 51.8902C231.943 51.8902 235.749 52.835 239.15 54.7247C242.552 56.5604 245.224 59.206 247.168 62.6614C249.166 66.1169 250.165 70.1393 250.165 74.7285C250.165 79.3178 249.139 83.3672 247.087 86.8766C245.089 90.3321 242.363 93.0046 238.907 94.8943C235.452 96.784 231.619 97.7289 227.407 97.7289ZM227.407 91.2499C230.053 91.2499 232.536 90.629 234.858 89.3872C237.18 88.1454 239.042 86.2827 240.446 83.7991C241.904 81.3155 242.633 78.292 242.633 74.7285C242.633 71.1651 241.931 68.1416 240.527 65.658C239.123 63.1744 237.288 61.3387 235.02 60.1508C232.752 58.909 230.296 58.2881 227.65 58.2881C224.951 58.2881 222.467 58.909 220.199 60.1508C217.986 61.3387 216.204 63.1744 214.854 65.658C213.504 68.1416 212.83 71.1651 212.83 74.7285C212.83 78.346 213.477 81.3965 214.773 83.8801C216.123 86.3637 217.905 88.2264 220.118 89.4682C222.332 90.656 224.762 91.2499 227.407 91.2499ZM267.224 59.8269C268.52 57.2893 270.356 55.3186 272.732 53.9148C275.161 52.5111 278.104 51.8092 281.559 51.8092V59.422H279.615C271.355 59.422 267.224 63.9033 267.224 72.8658V97H259.855V52.619H267.224V59.8269ZM328.293 52.619L301.567 117.895H293.954L302.701 96.5141L284.802 52.619H292.982L306.912 88.5773L320.68 52.619H328.293ZM332.947 74.6475C332.947 70.1123 333.865 66.1439 335.701 62.7424C337.537 59.287 340.047 56.6144 343.233 54.7247C346.472 52.835 350.063 51.8902 354.004 51.8902C357.891 51.8902 361.266 52.727 364.127 54.4008C366.989 56.0745 369.122 58.1802 370.525 60.7178V52.619H377.976V97H370.525V88.7393C369.068 91.3309 366.881 93.4906 363.965 95.2183C361.104 96.892 357.756 97.7289 353.923 97.7289C349.982 97.7289 346.418 96.757 343.233 94.8133C340.047 92.8697 337.537 90.1431 335.701 86.6336C333.865 83.1242 332.947 79.1288 332.947 74.6475ZM370.525 74.7285C370.525 71.3811 369.851 68.4655 368.501 65.9819C367.151 63.4983 365.315 61.6086 362.994 60.3128C360.726 58.963 358.215 58.2881 355.462 58.2881C352.708 58.2881 350.198 58.936 347.93 60.2318C345.662 61.5276 343.854 63.4173 342.504 65.9009C341.154 68.3845 340.479 71.3001 340.479 74.6475C340.479 78.049 341.154 81.0185 342.504 83.5561C343.854 86.0397 345.662 87.9564 347.93 89.3062C350.198 90.602 352.708 91.2499 355.462 91.2499C358.215 91.2499 360.726 90.602 362.994 89.3062C365.315 87.9564 367.151 86.0397 368.501 83.5561C369.851 81.0185 370.525 78.076 370.525 74.7285ZM443.801 51.8092C447.257 51.8092 450.334 52.5381 453.034 53.9958C455.733 55.3996 457.866 57.5323 459.432 60.3938C460.997 63.2554 461.78 66.7378 461.78 70.8412V97H454.491V71.894C454.491 67.4667 453.385 64.0922 451.171 61.7706C449.011 59.395 446.069 58.2072 442.343 58.2072C438.51 58.2072 435.459 59.449 433.192 61.9326C430.924 64.3622 429.79 67.8986 429.79 72.5419V97H422.501V71.894C422.501 67.4667 421.395 64.0922 419.181 61.7706C417.021 59.395 414.079 58.2072 410.353 58.2072C406.52 58.2072 403.47 59.449 401.202 61.9326C398.934 64.3622 397.8 67.8986 397.8 72.5419V97H390.431V52.619H397.8V59.017C399.258 56.6954 401.202 54.9137 403.631 53.6719C406.115 52.4301 408.842 51.8092 411.811 51.8092C415.537 51.8092 418.83 52.646 421.692 54.3198C424.553 55.9935 426.686 58.4501 428.09 61.6896C429.331 58.5581 431.383 56.1285 434.245 54.4008C437.106 52.673 440.292 51.8092 443.801 51.8092Z" fill="white"/>
<path d="M130.666 35.475L97.3161 53.6105L66.2068 36.6895L34.1128 54.1438L0 35.5899L32.0859 18.1355L65.4272 0L99.5482 18.554L130.666 35.475Z" fill="url(#paint0_linear_45_74)"/>
<path d="M129.197 105.85L95.7081 124.068L65.0255 140.751L35.4179 124.642L1.05078 105.957L31.7334 89.2739L66.1005 107.959L99.5896 89.7499L129.197 105.85Z" fill="url(#paint1_linear_45_74)"/>
<path d="M97.3165 53.6099L65.2224 71.0643L31.7333 89.2737L0.944061 72.525L0.624023 72.3527L0.944061 72.1803L34.1131 54.1433L66.2072 36.689L97.3165 53.6099Z" fill="#673DE6" fill-opacity="0.95"/>
<path d="M131.675 72.2956L130.846 72.747L99.5887 89.75L66.0996 107.959L31.7324 89.2741L65.2215 71.0647L97.3156 53.6104L130.846 71.8443L131.675 72.2956Z" fill="#673DE6" fill-opacity="0.7"/>
<path d="M31.7326 89.2736L1.05004 105.957L0.943359 105.899V72.5249L31.7326 89.2736Z" fill="url(#paint2_linear_45_74)"/>
<path d="M130.847 35.5731V71.844L97.3164 53.6101L130.666 35.4746L130.847 35.5731Z" fill="url(#paint3_linear_45_74)"/>
<defs>
<linearGradient id="paint0_linear_45_74" x1="159.785" y1="35.5079" x2="-33.5" y2="35" gradientUnits="userSpaceOnUse">
<stop stop-color="#673DE6"/>
<stop offset="1" stop-color="#673DE6" stop-opacity="0.2"/>
</linearGradient>
<linearGradient id="paint1_linear_45_74" x1="148.5" y1="115" x2="33.289" y2="115.401" gradientUnits="userSpaceOnUse">
<stop stop-color="#673DE6" stop-opacity="0.2"/>
<stop offset="1" stop-color="#673DE6" stop-opacity="0.7"/>
</linearGradient>
<linearGradient id="paint2_linear_45_74" x1="0.999999" y1="65" x2="10.3564" y2="102.085" gradientUnits="userSpaceOnUse">
<stop stop-color="#6049F9" stop-opacity="0.623529"/>
<stop offset="1" stop-color="#6049F9" stop-opacity="0.1"/>
</linearGradient>
<linearGradient id="paint3_linear_45_74" x1="114.065" y1="42.6714" x2="128.5" y2="95.5" gradientUnits="userSpaceOnUse">
<stop stop-color="#6049F9" stop-opacity="0.1"/>
<stop offset="1" stop-color="#6049F9"/>
</linearGradient>
</defs>
</svg>
