<svg width="132" height="141" viewBox="0 0 132 141" fill="none" xmlns="http://www.w3.org/2000/svg">
<path d="M130.666 35.475L97.3161 53.6105L66.2068 36.6895L34.1128 54.1438L0 35.5899L32.0859 18.1355L65.4272 0L99.5482 18.554L130.666 35.475Z" fill="url(#paint0_linear_45_82)"/>
<path d="M129.197 105.85L95.7081 124.068L65.0255 140.751L35.4179 124.642L1.05078 105.957L31.7334 89.2739L66.1005 107.959L99.5896 89.7499L129.197 105.85Z" fill="url(#paint1_linear_45_82)"/>
<path d="M97.3165 53.6099L65.2224 71.0643L31.7333 89.2737L0.944061 72.525L0.624023 72.3527L0.944061 72.1803L34.1131 54.1433L66.2072 36.689L97.3165 53.6099Z" fill="#673DE6" fill-opacity="0.95"/>
<path d="M131.675 72.2956L130.846 72.747L99.5887 89.75L66.0996 107.959L31.7324 89.2741L65.2215 71.0647L97.3156 53.6104L130.846 71.8443L131.675 72.2956Z" fill="#673DE6" fill-opacity="0.7"/>
<path d="M31.7326 89.2736L1.05004 105.957L0.943359 105.899V72.5249L31.7326 89.2736Z" fill="url(#paint2_linear_45_82)"/>
<path d="M130.847 35.5731V71.844L97.3164 53.6101L130.666 35.4746L130.847 35.5731Z" fill="url(#paint3_linear_45_82)"/>
<defs>
<linearGradient id="paint0_linear_45_82" x1="159.785" y1="35.5079" x2="-33.5" y2="35" gradientUnits="userSpaceOnUse">
<stop stop-color="#673DE6"/>
<stop offset="1" stop-color="#673DE6" stop-opacity="0.2"/>
</linearGradient>
<linearGradient id="paint1_linear_45_82" x1="148.5" y1="115" x2="33.289" y2="115.401" gradientUnits="userSpaceOnUse">
<stop stop-color="#673DE6" stop-opacity="0.2"/>
<stop offset="1" stop-color="#673DE6" stop-opacity="0.7"/>
</linearGradient>
<linearGradient id="paint2_linear_45_82" x1="0.999999" y1="65" x2="10.3564" y2="102.085" gradientUnits="userSpaceOnUse">
<stop stop-color="#6049F9" stop-opacity="0.623529"/>
<stop offset="1" stop-color="#6049F9" stop-opacity="0.1"/>
</linearGradient>
<linearGradient id="paint3_linear_45_82" x1="114.065" y1="42.6714" x2="128.5" y2="95.5" gradientUnits="userSpaceOnUse">
<stop stop-color="#6049F9" stop-opacity="0.1"/>
<stop offset="1" stop-color="#6049F9"/>
</linearGradient>
</defs>
</svg>
